<?xml version="1.0" encoding="utf-8"?>
<!-- Generator: Adobe Illustrator 24.0.3, SVG Export Plug-In . SVG Version: 6.00 Build 0)  -->
<svg version="1.1" id="Layer_1" xmlns="http://www.w3.org/2000/svg" xmlns:xlink="http://www.w3.org/1999/xlink" x="0px" y="0px"
	 viewBox="0 0 512 437.6" style="enable-background:new 0 0 512 437.6;" xml:space="preserve">
<style type="text/css">
	.st0{fill:#BFBFBF;}
	.st1{font-family:'NotoSansKR-Bold-KSCpc-EUC-H';}
	.st2{font-size:60px;}
	.st3{font-size:32px;}
</style>
<path class="st0" d="M317.1,84.6H194.6c-11,0-20.1,9.1-20.1,20.4v102c0,11.3,9.1,20.4,20.1,20.4h122.4c11.3,0,20.4-9.1,20.4-20.4
	V105C337.5,93.8,328.6,84.6,317.1,84.6z M209.9,105c8.5,0,15.3,6.9,15.3,15.3s-6.6,15.3-15.3,15.3s-15.3-6.9-15.3-15.3
	S201.8,105,209.9,105z M316.8,204.4c-0.9,1.7-2.6,2.7-4.5,2.7H200.7c-1.9,0-3.7-1.1-4.5-2.8c-0.9-1.7-0.7-3.8,0.4-5.3l22.3-30.6
	c1-1.3,2.5-2.1,4.1-2.1c1.6,0,3.2,0.8,4.1,2.1l10.3,14.2l29.7-44.4c1-1.7,2.6-2.5,4.2-2.5s3.3,0.9,4.2,2.3l40.8,61.2
	C317.6,200.7,317.7,202.7,316.8,204.4z"/>
<text transform="matrix(1 0 0 1 116.4936 314.5177)"><tspan x="0" y="0" class="st0 st1 st2">NO IMAGE</tspan><tspan x="-23.8" y="52" class="st0 st1 st3">등록된 이미지가 없습니다</tspan></text>
</svg>
