<?xml version="1.0" encoding="utf-8"?>
<!-- Generator: Adobe Illustrator 24.0.3, SVG Export Plug-In . SVG Version: 6.00 Build 0)  -->
<svg version="1.1" id="Layer_1" xmlns="http://www.w3.org/2000/svg" xmlns:xlink="http://www.w3.org/1999/xlink" x="0px" y="0px"
	 viewBox="0 0 624.4 429" style="enable-background:new 0 0 624.4 429;" xml:space="preserve">
<style type="text/css">
	.st0{fill:#FFFFFF;}
	.st1{fill:#F2F2F2;}
	.st2{fill:#3F3D56;}
	.st3{fill:#2F2E41;}
	.st4{fill:#FFB8B8;}
	.st5{fill:#2253FF;}
	.st6{fill:#A0616A;}
	.st7{fill:#CCCCCC;}
</style>
<path class="st0" d="M615.1,429H9.3c-5.1,0-9.3-4.2-9.3-9.3V9.5c0-5.1,4.2-9.3,9.3-9.3h605.8c5.1,0,9.3,4.2,9.3,9.3v410.1
	C624.4,424.8,620.3,429,615.1,429z"/>
<path class="st1" d="M-211.6-71.1c-0.1,23.8-1.7,47.7-4.8,71.3c-0.1,0.8-0.2,1.7-0.3,2.5H-440c-0.7-0.8-1.3-1.6-1.9-2.5
	c-2.1-2.8-4.1-5.6-5.9-8.6c-8.7-14.3-12.7-31-8.9-42.6l0.1-0.2c0.8-2.5,2.2-4.9,3.9-6.9c9-10.2,27.2-8.6,43.8-0.5
	c-14.9-16.2-26.9-36.6-27.9-54.9c-1-17.8,8.3-30.6,18.3-41.5c0.3-0.4,0.7-0.7,1-1.1c0.2-0.2,0.3-0.4,0.5-0.5
	c7.9-8.3,17-16.5,30.3-15.6c14.6,1,30.9,13.1,42.3,27.4c11.4,14.2,19.1,30.3,26.8,46.1c7.8,15.8,16.1,31.9,28.5,45.3
	c-16.8-21-30.3-44.9-35.4-68.1s-0.8-45.7,14-56.7c4.5-3.3,9.7-5.4,15.2-6.2c0.6-0.1,1.3-0.2,1.9-0.3c13.7-1.6,30.2,3,44.2,14.3
	c15.4,12.4,26.2,30.9,31.6,48.5C-212.2-104.4-211.5-87.5-211.6-71.1z"/>
<path class="st0" d="M-357.3,2.7h-4.3c-1.4-0.8-2.7-1.7-4.1-2.5c-0.9-0.5-1.7-1-2.6-1.6c-14.2-8.6-28.5-16.8-42.9-24.6
	c-14.4-7.9-28.8-15.4-43.3-22.5c-0.8-0.3-1.2-1.2-1-2c0-0.1,0-0.1,0.1-0.1c0.2-0.4,0.6-0.5,1.3-0.2c1.8,0.9,3.6,1.8,5.3,2.7
	c14.6,7.3,29,14.9,43.5,22.9c14.4,8,28.8,16.3,43,25c0.3,0.2,0.6,0.4,0.9,0.5C-360,1-358.6,1.9-357.3,2.7z"/>
<path class="st0" d="M-302.2,2.7h-2.6c-0.6-0.8-1.2-1.7-1.8-2.5c-14.1-19.5-28.2-39.1-42.3-58.6c-23.1-32-46.2-64-69.2-96
	c-0.1-0.2-0.2-0.4-0.3-0.6c-0.2-0.7,0.3-1.1,1-1.1c0.6,0.1,1.1,0.4,1.4,0.9c12.9,17.9,25.9,35.9,38.8,53.8
	c23,31.8,45.9,63.7,68.9,95.5c1.5,2,2.9,4,4.4,6.1C-303.4,1-302.8,1.9-302.2,2.7z"/>
<path class="st0" d="M-243.5-13c-0.1,4.5-0.4,8.8-0.7,13.2c-0.1,0.8-0.1,1.7-0.2,2.5h-2.8c0.1-0.8,0.2-1.7,0.2-2.5
	c0.6-6.3,0.9-12.6,1-19.1c0-18-1.9-36-5.5-53.7c-3.9-19-9.4-37.7-16.6-55.8c-7.5-19.1-16.5-37.5-26.9-55.1c-0.2-0.3-0.3-0.6-0.2-1
	c0.1-0.8,1.2-1,1.9-0.3c0.2,0.1,0.3,0.3,0.4,0.5c1.3,2.2,2.6,4.4,3.8,6.6c10,17.7,18.7,36.2,25.8,55.3c6.8,18.1,11.9,36.8,15.5,55.8
	C-244.6-48.9-243.1-30.9-243.5-13z"/>
<path class="st2" d="M615.7,0.2H8.7C3.9,0.2,0,4.1,0,8.9v411.3c0,4.8,3.9,8.7,8.7,8.7h607c2.6,0,5-1.1,6.6-3.1
	c0.1-0.1,0.1-0.2,0.2-0.2c0.5-0.6,0.9-1.3,1.2-2.1c0.4-1,0.7-2.2,0.7-3.3V8.9C624.4,4.1,620.5,0.2,615.7,0.2z M622,420.2
	c0,1.2-0.4,2.4-1,3.4c-0.6,0.9-1.4,1.6-2.4,2.1c-0.9,0.5-1.9,0.7-2.9,0.7H8.7c-3.4,0-6.2-2.8-6.2-6.2V8.9c0-3.4,2.8-6.2,6.2-6.2h607
	c3.4,0,6.2,2.8,6.2,6.2L622,420.2L622,420.2z"/>
<rect x="1.2" y="35.2" class="st2" width="622" height="2.5"/>
<circle class="st2" cx="22.4" cy="18.9" r="7.5"/>
<circle class="st2" cx="43.9" cy="18.9" r="7.5"/>
<circle class="st2" cx="65.4" cy="18.9" r="7.5"/>
<path class="st3" d="M277,247.1c-7.5-4.9-11.2-16.2-9.4-26.5s8.7-19.3,17-23.1c8.2-3.7,17.7-3,25.2,1.8c7.6,4.6,18.3,7.2,21.9,16.5
	c2.8,7.1-0.7,21.6-4.5,28.5c-3.2,6-9.3,8.7-15.1,9.9c-12.9,2.6-26.2-0.5-36.7-8.5L277,247.1z"/>
<polygon class="st4" points="273.1,302 267.1,312.3 266.3,313.7 265.2,315.7 247.5,315.7 248.7,313.7 251.8,308.5 259,296.4 
	267.1,299.6 "/>
<path class="st3" d="M246.2,315.7l-3.2-2l-0.4-0.2l20.2-36.8c1.8-3.2,4.7-5.6,8.2-6.6c2.2-0.7,4.5-0.7,6.8-0.2
	c1.3,0.3,2.6,0.7,3.7,1.4c0.5,0.3,0.9,0.6,1.4,0.9c1.7,1.2,3.1,2.8,4.1,4.6c2.4,4.4,2.2,9.7-0.4,14l-7.8,12.5l-6.7,10.7l-1.2,2
	L246.2,315.7L246.2,315.7z"/>
<circle class="st4" cx="298.1" cy="235.6" r="24.6"/>
<path class="st5" d="M322.8,315.7h-55.2l0.2-0.7c-0.1-0.4-0.3-0.9-0.4-1.3c-0.1-0.5-0.2-0.9-0.3-1.4c-0.9-4.2-0.9-8.5,0-12.7
	c3.1-15,15.2-27.2,15.2-27.2c0.2-0.2,0.4-0.3,0.6-0.5c1.8-1.3,3.8-2.4,5.9-3.3c9-3.8,18.5-2.2,24.9-0.3c2.2,0.7,4.4,1.5,6.5,2.5
	c0.7,0.3,1.1,0.6,1.1,0.6l0.6,19.2l0.8,23L322.8,315.7z"/>
<path class="st3" d="M348.3,313.7l-4.2-21.5l-4.3-21.6c-0.4-1.8-1.8-3.2-3.7-3.6l-8.9-1.5l-8.3-1.4c-1.6-0.3-3.3,0.3-4.3,1.7
	c-0.6,0.8-1,1.7-1,2.7c0,0.6,0.1,1.2,0.4,1.8c4.3,10.1,4.4,26.1,3.3,43.5c0,0.7-0.1,1.3-0.1,2h31.5L348.3,313.7z"/>
<path class="st3" d="M288.8,268.8c-0.6-2.4-3.1-3.9-5.5-3.3c-0.6,0.2-1.2,0.4-1.7,0.8l-3.8,3.5l-15.7,14.3c-0.5,0.4-0.9,1-1.1,1.6
	c-1.8,4.2-5.2,12.6-9.2,22.9c-0.6,1.7-1.3,3.4-2,5.2c-0.2,0.7-0.5,1.3-0.8,2h25.8c0.2-0.7,0.4-1.3,0.6-2c1.1-3.6,2.3-7.2,3.4-10.7
	c3.2-10,6-19.2,8.2-26.4c0.6-2,1.2-3.8,1.7-5.5C289,270.3,289,269.5,288.8,268.8z"/>
<polygon class="st4" points="354.1,315.7 355.8,315.7 355.6,315.1 355,313.7 345.5,291.4 344.1,292.2 332.5,299.2 338.5,313.7 
	339.3,315.7 348.7,315.7 "/>
<path class="st3" d="M344.6,273.7c-2.6-6.9-10.3-10.5-17.3-8.2c-0.4,0.1-0.9,0.3-1.3,0.5c-2.4,1.1-4.4,2.8-5.8,4.9
	c-0.6,0.9-1.1,1.8-1.4,2.8c-1.3,3.4-1.2,7.2,0.3,10.6l2.9,6.4l10.3,23l0.9,2h20.9l1.4-0.6l3.7-1.4l0.5-0.2L344.6,273.7z"/>
<path class="st3" d="M317.4,207.4c1.8,0.5,3.7-0.2,4.6-1.8c0.9-1.6,1-3.5,0.3-5.1s-1.8-3.1-3.2-4.2c-1.6-1.4-3.5-2.4-5.6-2.9
	s-4.3,0-6.1,1.3c-1.7,1.4-2.4,3.6-1.8,5.7c0.6,1.8,2.4,3.1,4.1,4c3.4,1.8,7.2,2.9,11,3.1L317.4,207.4z"/>
<path class="st3" d="M322.2,234.9c-3.9,0.5-3.4-1.5-5-5.1s-3.7-8-7.7-8.4c-3.3-0.3-5.9,2.3-8.6,4.2c-4.7,3.4-11,5.1-16.5,3.1
	s-9.2-8.6-7.2-14c1.3-3,3.8-5.4,6.9-6.5s6.4-1.6,9.6-1.3c7.3,0.2,14.4,2.1,20.9,5.3c4.5,2.3,8.8,5.5,10.5,10.2s2.8,11.4-2,12.6
	L322.2,234.9z"/>
<path class="st3" d="M315.4,194.4c-2-3.4-0.3-8.1,2.9-10.3s7.5-2.5,11.3-1.6c7.7,1.9,13.7,7.8,15.9,15.4c1.6,5.9,0.7,12.3,2,18.3
	c3,12.9,15.8,21.1,28.8,18.1c0.5-0.1,1-0.2,1.4-0.4c4.1-1.2,8.3-4.1,8.7-8.4c0.9,10-4.7,19.5-13.9,23.5c-5.3,2.2-11.2,2.3-16.9,2.2
	c-3.7-0.1-7.5-0.3-11-1.8c-4.8-2.2-8.5-6.2-10.3-11.2c-1.8-4.9-2.2-10.3-1.4-15.4c0.6-4,1.7-8,2-12s-0.3-8.4-2.8-11.6
	s-7.3-4.8-10.8-2.9c-1.4,0.8-2.6,2.1-4.1,2.6s-3.8-0.4-3.6-2L315.4,194.4z"/>
<path class="st5" d="M483,315.7l0.2-2l5.6-58.7c1.8-1.4,3.8-2.7,5.9-3.8c11.6-5.8,22.8-3,28.9-0.6c1.6,0.6,3.2,1.4,4.6,2.3l3.3,60.8
	l0.1,2L483,315.7L483,315.7z"/>
<ellipse class="st4" cx="509.4" cy="214.8" rx="24.6" ry="24.6"/>
<path class="st3" d="M529.3,229.8c5.1-5.4,4.9-13.8-0.5-18.9c-2.6-2.5-6.1-3.8-9.6-3.7c-3.4,0.1-6.6,1.5-9.8,2.5
	c-4.9,1.7-10.2,2.1-15.3,1.4c-5.2-0.8-9.8-3.6-13-7.7c-3-4.2-4-10-1.8-14.7c2.5-5.4,8.3-8.4,13.7-10.8c2.2-1.1,4.5-1.9,7-2.3
	s5,0.2,6.9,1.7c1.5,1.3,2.4,3.3,4.1,4.4c1.9,1.3,4.3,1.3,6.6,1.5c13.9,1.4,24,13.7,22.6,27.6c-0.7,7.2-4.5,13.7-10.4,18L529.3,229.8
	z"/>
<path class="st3" d="M498.4,261.4l-3.7-10.2l-0.2-0.6c-0.4-1.1-1.6-1.7-2.7-1.3c-0.2,0.1-0.3,0.1-0.5,0.2l-4.2,2.8
	c0,0-26.6,0-28.8,16c0,0.2-0.1,0.5-0.1,0.8l0,0c-0.3,1-5.3,20.5-9.6,44.5c-0.1,0.7-0.2,1.3-0.4,2h57.9l0,0
	C508.2,291.6,507.1,269.2,498.4,261.4z"/>
<path class="st3" d="M567.5,313.7c-3.2-24.6-7.7-44.5-7.7-44.5c0-0.3-0.1-0.6-0.1-0.8c-2.1-16-28.8-16-28.8-16l-4.2-2.8
	c-1-0.6-2.3-0.4-2.9,0.6c-0.1,0.1-0.2,0.3-0.2,0.5l-3.9,10.8c-8.7,7.8-9.7,30.2-7.8,54.3l0,0h55.8
	C567.7,315,567.6,314.4,567.5,313.7z"/>
<path class="st5" d="M98.4,257.6l-5.9,56.1l-0.2,2H76.2c0.2-0.7,0.4-1.3,0.6-2c4.6-15.6,10.8-38.5,10.1-44.5
	c-1-9.4,6.3-12.6,6.3-12.6l0.5,0.1L98.4,257.6z"/>
<circle class="st6" cx="124.3" cy="215.8" r="24.6"/>
<path class="st5" d="M156.1,303.8c-1.2,2.3-2.3,4.7-3,7.2c-0.3,0.9-0.6,1.8-0.8,2.7c-0.2,0.7-0.4,1.3-0.5,2H87
	c0.1-0.7,0.2-1.3,0.3-2c3.3-26.2,6-52.7,6.4-57c0-0.4,0.1-0.6,0.1-0.6c38.8-20.5,67.1,6.3,67.1,6.3s0,0.2,0.1,0.6
	C161.6,266.7,164.7,288.5,156.1,303.8z"/>
<path class="st5" d="M153.1,311l-4.3-9.3l1-36.7l11.1-2.1l0.4-0.1c5.7,3.3,10.2,8.5,12.6,14.7c2.2,5.4,6.3,21.6,9.7,36.1
	c0.2,0.7,0.3,1.3,0.5,2h-28.9l-0.9-2L153.1,311z"/>
<path class="st2" d="M192.6,150.7h-142c-6.3,0-11.5,5.1-11.5,11.5v142c0,6.3,5.1,11.5,11.5,11.5h142c6.3,0,11.5-5.1,11.5-11.5v-142
	C204.1,155.8,199,150.7,192.6,150.7z M202.1,304.2c0,5.2-4.3,9.5-9.5,9.5h-142c-5.2,0-9.5-4.3-9.5-9.5v-142c0-5.2,4.3-9.5,9.5-9.5
	h142c5.2,0,9.5,4.3,9.5,9.5V304.2z M92.5,313.7l-0.2,2h59.5c0.2-0.7,0.3-1.3,0.5-2H92.5z"/>
<path class="st2" d="M383.2,150.7h-142c-6.3,0-11.5,5.1-11.5,11.5v142c0,6.3,5.1,11.5,11.5,11.5h142c6.3,0,11.5-5.1,11.5-11.5v-142
	C394.7,155.8,389.6,150.7,383.2,150.7z M392.7,304.2c0,5.2-4.3,9.5-9.5,9.5h-142c-5.2,0-9.5-4.3-9.5-9.5v-142c0-5.2,4.3-9.5,9.5-9.5
	h142c5.2,0,9.5,4.3,9.5,9.5V304.2z M267.4,313.7c0.1,0.4,0.3,0.9,0.4,1.3l-0.2,0.7h49.7c0.1-0.7,0.1-1.3,0.1-2H267.4z"/>
<path class="st2" d="M573.8,150.7h-142c-6.3,0-11.5,5.1-11.5,11.5v142c0,6.3,5.1,11.5,11.5,11.5h142c6.3,0,11.5-5.1,11.5-11.5v-142
	C585.3,155.9,580.2,150.7,573.8,150.7z M583.3,304.2c0,5.2-4.3,9.5-9.5,9.5h-142c-5.2,0-9.5-4.3-9.5-9.5v-142c0-5.2,4.3-9.5,9.5-9.5
	h142c5.2,0,9.5,4.3,9.5,9.5V304.2z M506.4,313.7c0,0.7-0.1,1.3-0.1,2h43.1c0.1-0.7,0.2-1.3,0.2-2H506.4z"/>
<path class="st7" d="M477.2,373.7h-330c-4.4,0-8-3.6-8-8s3.6-8,8-8h330c4.4,0,8,3.6,8,8S481.6,373.7,477.2,373.7z"/>
<path class="st5" d="M384.7,108.7h-145c-4.4,0-8-3.6-8-8s3.6-8,8-8h145c4.4,0,8,3.6,8,8S389.1,108.7,384.7,108.7z"/>
<path class="st3" d="M136.1,237.2c1.7,1.7,4.4,1.9,6.3,0.4c5.8-4.3,10.9-9.6,13.9-16.1c3.4-7.5,3.8-16.6-0.3-23.7
	c-3.5-6-9.7-9.9-15.9-13c-2.4-1.4-5-2.4-7.7-3s-5.6-0.1-8,1.3c-2.4,1.5-3.6,4.3-3.1,7.1c-3-3.4-6.8-5.9-11-7.4
	c-2.7-1-5.6-1.3-8.4-0.6c-3.9,1.1-6.8,4.6-8.4,8.4c-1.3,2.9-1.7,6-1.3,9.1c0.5,3.1,2.2,5.9,4.9,7.6c3.2,2,7.4,1.9,11.1,1
	s7.3-2.2,11.1-2.6s8,0.6,10.3,3.6c1.6,2.1,2,4.9,2.4,7.6l1.9,13.8c0.2,2,0.7,4,1.5,5.8C135.7,236.7,135.9,237,136.1,237.2z"/>
</svg>
